<?xml version="1.0" encoding="UTF-8"?>
<svg version="1.1" xmlns="http://www.w3.org/2000/svg" width="5553" height="2763">
<path d="M0 0 C7.99954567 8.86078041 8.98220213 19.76966253 10.5 31.1875 C10.6381311 32.21858887 10.6381311 32.21858887 10.77905273 33.27050781 C11.62130376 40.13821479 11.90946827 47.02748464 12.1875 53.9375 C12.24744141 55.1234375 12.30738281 56.309375 12.36914062 57.53125 C12.81868864 68.81305771 13.02761751 82.07531973 4.9296875 90.8984375 C-2.3417557 97.58294806 -9.80511747 98.84441009 -19.44921875 98.52734375 C-27.42495977 98.00504517 -34.09049488 94.96402959 -41.06860352 91.29711914 C-41.72658936 90.95156982 -42.3845752 90.60602051 -43.0625 90.25 C-43.7237085 89.90251709 -44.38491699 89.55503418 -45.06616211 89.19702148 C-57.43150879 82.94616498 -71.79828124 80.06961442 -85.58203125 79.984375 C-86.34457718 79.97727005 -87.10712311 79.9701651 -87.89277649 79.96284485 C-105.9566282 79.83328725 -123.63754807 80.20542119 -141.5 83.1875 C-142.14590088 83.29449219 -142.79180176 83.40148437 -143.45727539 83.51171875 C-201.80712097 93.24706448 -258.1240108 113.26857855 -311.75390625 137.92529297 C-314.21623525 139.05707114 -316.68485994 140.17335534 -319.15625 141.28515625 C-330.01675601 146.22299966 -340.43521961 151.93298134 -350.85888672 157.7265625 C-353.27414807 159.06256952 -355.69855129 160.37921255 -358.12890625 161.6875 C-381.18830703 174.16586281 -402.95206583 188.92150755 -423.5 205.1875 C-424.43199219 205.92484375 -425.36398437 206.6621875 -426.32421875 207.421875 C-433.32585492 213.05514576 -439.97091899 219.01953579 -446.5 225.1875 C-447.36753906 226.00089844 -448.23507812 226.81429687 -449.12890625 227.65234375 C-466.53201973 244.456289 -481.14985456 266.11590611 -481.8125 290.9375 C-481.41385334 313.9095137 -470.69287704 333.5237022 -454.5 349.1875 C-413.16665417 387.76145696 -353.78793793 403.33451217 -301.39160156 420.57617188 C-298.06920221 421.66953509 -294.74837385 422.7674973 -291.42871094 423.86914062 C-268.01150175 431.63751454 -244.50530742 439.0716625 -220.90377808 446.25725555 C-138.53589513 471.33752569 -52.79239076 499.60108274 47.5 596.1875 C48.31597656 597.363125 48.31597656 597.363125 49.1484375 598.5625 C73.68944257 636.52648575 75.45826496 684.68300471 66.73291016 727.6628418 C62.8431687 745.55207382 56.55161265 762.76556504 48.5 779.1875 C48.06171875 780.0832373 47.6234375 780.97897461 47.171875 781.90185547 C40.5315208 795.33078605 33.22951663 808.01107462 24.5 820.1875 C23.7575 821.22511475 23.7575 821.22511475 23 822.28369141 C13.59013285 835.32946751 3.22097366 847.3749393 -7.75 859.125 C-8.39936523 859.82294678 -9.04873047 860.52089355 -9.71777344 861.23999023 C-14.07765888 865.85949811 -18.67035401 870.06670738 -23.5 874.1875 C-24.56036643 875.1242994 -25.61906913 876.06298672 -26.67578125 877.00390625 C-98.46315725 940.17816429 -193.80457528 969.11577871 -293.875 969.375 C-294.84533173 969.37439575 -295.81566345 969.3737915 -296.81539917 969.37316895 C-438.12536435 969.13702117 -438.12536435 969.13702117 -478.23828125 931.54296875 C-486.0224759 923.43611319 -489.58136204 915.12712507 -489.9375 903.9375 C-489.2228095 876.22949924 -467.47085841 844.22527502 -448.5 825.1875 C-441.51190849 818.82847348 -434.17085678 814.86034111 -424.54614258 815.07324219 C-415.37187784 815.57035414 -407.18435401 817.50314599 -400.5 824.1875 C-397.57549725 830.18118054 -397.23890598 837.28618452 -399.29296875 843.640625 C-400.954274 847.07780828 -402.77905871 849.52055857 -405.5 852.1875 C-332.7230311 882.25853923 -234.1250004 884.37382206 -160.93359375 854.578125 C-143.87042864 847.36581957 -127.64561035 838.88490101 -112.5 828.1875 C-111.57960938 827.54167969 -110.65921875 826.89585937 -109.7109375 826.23046875 C-74.67490767 801.21178266 -46.45882883 767.80112907 -33.125 726.375 C-32.88612061 725.63507812 -32.64724121 724.89515625 -32.40112305 724.1328125 C-24.10041234 696.87836169 -27.1031592 669.12356 -40.34179688 644.25537109 C-45.17707513 635.6224017 -51.73068659 628.34130109 -58.5 621.1875 C-59.19738281 620.43726563 -59.89476562 619.68703125 -60.61328125 618.9140625 C-115.83451032 561.37091704 -212.24846101 539.38783262 -285.37319946 516.13153076 C-419.18805969 473.57092524 -419.18805969 473.57092524 -463.61376953 450.17773438 C-465.62971797 449.11940058 -467.65601983 448.08274629 -469.68359375 447.046875 C-490.87831358 436.13333747 -510.59037442 422.92779065 -528.5 407.1875 C-529.53253906 406.32125 -529.53253906 406.32125 -530.5859375 405.4375 C-542.19285718 395.64263108 -552.23208762 384.92455421 -560.5 372.1875 C-561.12261719 371.26066406 -561.74523437 370.33382813 -562.38671875 369.37890625 C-580.54444185 340.61217639 -585.25477503 301.35521216 -578.04345703 268.48535156 C-570.27611558 235.64338492 -553.72395765 207.33834947 -531.5 182.1875 C-530.83355469 181.41019531 -530.16710937 180.63289062 -529.48046875 179.83203125 C-524.22218945 173.80627134 -518.57925685 168.16445358 -512.9375 162.5 C-512.13376953 161.69159668 -511.33003906 160.88319336 -510.50195312 160.05029297 C-505.66276133 155.22400304 -500.71421707 150.60542154 -495.5 146.1875 C-494.56208618 145.38953003 -494.56208618 145.38953003 -493.60522461 144.57543945 C-482.24892866 134.98286037 -470.4968121 125.96154323 -458.5 117.1875 C-457.77844727 116.65914551 -457.05689453 116.13079102 -456.31347656 115.58642578 C-429.56004909 96.10036595 -400.87866214 79.61464076 -371.39355469 64.65771484 C-369.00873387 63.44598763 -366.631212 62.22214244 -364.2578125 60.98828125 C-331.35159062 44.00988629 -296.51497704 31.05335323 -261.5 19.1875 C-260.85454224 18.96813782 -260.20908447 18.74877563 -259.54406738 18.52276611 C-200.29459079 -1.55531312 -54.0773539 -50.00167097 0 0 Z " fill="#000000" transform="translate(1417.5,629.8125)"/>
<path d="M0 0 C0.6492041 0.29245605 1.2984082 0.58491211 1.96728516 0.88623047 C24.29059523 11.07437561 43.24883338 26.22636123 52.875 49.375 C62.08874479 75.80473852 59.11789537 103.49062803 47.32421875 128.5625 C33.78637958 156.00182775 10.28668441 177.16446613 -14 195 C-14.6084375 195.44972168 -15.216875 195.89944336 -15.84375 196.36279297 C-53.89893697 224.40513359 -97.02825386 245.9803401 -141 263 C-142.06589355 263.41314453 -143.13178711 263.82628906 -144.22998047 264.25195312 C-257.95063639 308 -257.95063639 308 -303 308 C-303.10570313 309.02222656 -303.21140625 310.04445313 -303.3203125 311.09765625 C-304.04957888 316.93306669 -305.29979369 322.66500528 -306.46890259 328.42486572 C-309.38518281 342.87806185 -311.61285382 357.31152187 -313 372 C-313.0942627 372.89251465 -313.18852539 373.7850293 -313.28564453 374.70458984 C-314.28738007 385.42262254 -314.22186122 396.17812924 -314.24023438 406.93408203 C-314.2498797 410.33261161 -314.28095587 413.73051936 -314.3125 417.12890625 C-314.51345384 458.52972094 -305.65729587 499.87715743 -276.5625 530.8125 C-248.92131887 556.76269123 -213.30526432 562.24903204 -176.76464844 561.16845703 C-132.93538627 559.20722546 -89.73182022 543.52003988 -57 514 C-55.66731189 512.87423574 -54.33405626 511.74914264 -53 510.625 C-44.36755004 502.99632329 -36.33040649 494.76482369 -29.171875 485.73828125 C-26.85623883 482.81874716 -24.46595112 479.97256709 -22.0625 477.125 C18.42505375 428.5399355 52.58893114 371.51739866 76.38989258 312.84863281 C80.16710871 303.78587329 84.84220096 296.14692787 94 292 C100.31881982 289.63044257 106.61314118 290.96220346 112.62890625 293.53515625 C118.33722333 297.06171128 121.47568612 303.6255965 123 310 C134.57914289 369.05362876 79.17715838 458.37203 47.86962891 505.234375 C39.22905758 518.01583125 29.91448064 530.18440473 20 542 C19.48550293 542.61359375 18.97100586 543.2271875 18.44091797 543.859375 C9.87774531 554.03408729 1.11479371 564.05333727 -8.39453125 573.359375 C-10.16687937 575.17053366 -11.79731716 577.06863863 -13.4375 579 C-16.40022109 582.43993791 -19.59290147 585.37208395 -23.0546875 588.30078125 C-24.85637395 589.87454351 -26.48287332 591.51297655 -28.125 593.25 C-72.74770462 638.47981625 -140.31310578 657.76866773 -202.1875 658.3125 C-262.40849971 658.11810106 -316.48294719 637.48699264 -359.75 595.5625 C-394.53859784 559.95774737 -409.16160403 509.48560655 -413 461 C-413.11085938 459.77925781 -413.22171875 458.55851562 -413.3359375 457.30078125 C-420.85054063 361.74346313 -392.20467438 266.51273637 -292 106 C-289.52041423 103.16268408 -286.98160129 100.38306287 -284.4140625 97.625 C-282.52702615 95.57307698 -280.70744322 93.49473243 -278.89453125 91.37890625 C-274.64462592 86.50603201 -270.09178649 81.94127068 -265.51196289 77.3815918 C-264.06475615 75.93974779 -262.62297974 74.49262884 -261.18164062 73.04492188 C-255.95822839 67.81742509 -250.6358361 62.78066839 -245 58 C-243.97858811 57.11134163 -242.95771868 56.22205922 -241.9375 55.33203125 C-177.72680133 0.25769529 -82.3631478 -37.61998314 0 0 Z M-117 69 C-117.7734375 69.18272461 -118.546875 69.36544922 -119.34375 69.55371094 C-150.07532205 77.14929835 -176.72108046 94.73634311 -199.78515625 115.96875 C-201.75839244 117.77841988 -203.77107813 119.51839891 -205.8125 121.25 C-215.46205369 129.6884761 -224.07090112 138.93927694 -232 149 C-232.88267458 150.06088123 -233.76823778 151.11936386 -234.65625 152.17578125 C-244.05759352 163.46768223 -251.98929814 175.70190989 -260 188 C-261.049048 189.5979394 -262.09848945 191.1956206 -263.1484375 192.79296875 C-271.46947507 205.49776552 -279.47750632 218.26439567 -286 232 C-230.88983903 226.10192257 -175.89363805 202.23836074 -127.05371094 177.05566406 C-125.58310599 176.29973256 -124.10943439 175.54975532 -122.63378906 174.80371094 C-96.54790025 161.6148948 -72.27682775 145.94360699 -50 127 C-49.42314453 126.51112305 -48.84628906 126.02224609 -48.25195312 125.51855469 C-39.96219808 118.42341428 -29.73749945 109.42740025 -28 98 C-28.39250826 91.24654898 -30.87419894 85.96342179 -35.8046875 81.2890625 C-57.59964908 63.00684198 -90.55133671 62.74493721 -117 69 Z " fill="#000000" transform="translate(4041,903)"/>
<path d="M0 0 C5.44252402 5.59802471 9.13569974 12.42119584 9.625 20.25 C9.21728879 37.04770187 -8.97774538 54.1527168 -19.0546875 66.40356445 C-62.29369452 119.0780908 -96.98382035 180.86149721 -121.8125 244.25 C-122.25883789 245.38904785 -122.70517578 246.5280957 -123.16503906 247.70166016 C-144.97847394 303.92444857 -157.92225742 362.00290044 -158.05273438 422.52246094 C-158.06248944 425.24704986 -158.09367363 427.97089738 -158.125 430.6953125 C-158.22034963 446.46671182 -156.38910222 460.70232976 -149.8125 475.25 C-149.39355469 476.18328125 -148.97460938 477.1165625 -148.54296875 478.078125 C-139.32894405 496.66549472 -121.68883237 508.31360168 -102.57763672 515.03613281 C-58.3090247 529.31259115 -7.16727915 524.10500083 34.18212891 503.39282227 C44.41148037 498.1019383 53.93967444 492.10117749 63.1875 485.25 C63.7537207 484.83395508 64.31994141 484.41791016 64.90332031 483.98925781 C82.46452016 471.01639723 98.7668149 456.5305185 112.1875 439.25 C113.19347354 437.99566299 114.20002341 436.74178805 115.20703125 435.48828125 C123.55831623 424.97017638 130.57738829 413.92928862 137.1875 402.25 C137.60515625 401.52312988 138.0228125 400.79625977 138.453125 400.04736328 C155.93486828 369.44721768 165.69912611 333.97390763 156.3515625 299.1875 C151.18936751 281.22900101 142.09366699 266.37698644 129.45703125 252.70703125 C127.97303026 251.10042777 126.51086285 249.4733056 125.07421875 247.82421875 C119.36773043 241.28314347 113.17182121 235.44327848 106.73046875 229.64453125 C105.35215024 228.39881047 103.98759865 227.13789631 102.625 225.875 C96.94072814 220.63948644 90.97714747 215.85587838 84.875 211.125 C81.82629799 208.75951662 78.82115132 206.3450891 75.82421875 203.91455078 C67.19185571 196.92501701 58.27576159 190.35128102 49.30859375 183.79980469 C39.00016165 176.26781493 29.01733181 168.39402773 19.1875 160.25 C18.56520508 159.73501953 17.94291016 159.22003906 17.30175781 158.68945312 C-16.05403435 130.95542369 -16.05403435 130.95542369 -18.15625 110.984375 C-18.44026503 100.80716987 -16.50776662 93.30034471 -9.93359375 85.44140625 C9.09766873 65.77927319 41.72560745 60.42522407 67.85546875 59.94750977 C97.33235838 59.84332421 97.33235838 59.84332421 106.83984375 67.59765625 C110.50355585 71.57995201 112.14110838 76.03738032 112.21875 81.4140625 C111.70749453 88.85282961 108.68222873 94.43253682 104.1875 100.25 C113.82087415 108.57025824 113.82087415 108.57025824 123.625 116.6875 C134.64353455 125.65118303 145.22773116 135.09275885 155.60791016 144.78369141 C157.17090875 146.2345986 158.74525418 147.67196746 160.32421875 149.10546875 C166.54471193 154.76473607 172.6043364 160.56460118 178.5625 166.5 C179.21645752 167.14936523 179.87041504 167.79873047 180.54418945 168.46777344 C184.38614431 172.32196226 188.03709878 176.29166448 191.59326172 180.41064453 C193.69985689 182.84113274 195.88010154 185.20007203 198.0625 187.5625 C202.98255616 192.96564324 207.63660575 198.53401426 212.1875 204.25 C212.97898437 205.22324219 213.77046875 206.19648437 214.5859375 207.19921875 C231.08423307 227.93918969 242.47118778 251.39728383 248.375 277.25 C248.53000977 277.92482422 248.68501953 278.59964844 248.84472656 279.29492188 C251.61470847 292.14908628 252.5689325 304.83719121 252.5 317.9375 C252.49784485 318.68045319 252.4956897 319.42340637 252.49346924 320.18887329 C252.438254 332.09669306 251.80435417 343.60452486 249.1875 355.25 C248.99414062 356.13059082 248.80078125 357.01118164 248.6015625 357.91845703 C238.13356695 404.30557002 214.66852337 449.15352636 185.1875 486.25 C184.12208984 487.60158203 184.12208984 487.60158203 183.03515625 488.98046875 C178.17403682 495.03764568 173.03042998 500.78048949 167.75 506.46875 C165.6409211 508.75787222 163.58771288 511.07475164 161.5625 513.4375 C156.01883068 519.81470433 149.99118375 525.71390958 143.5703125 531.203125 C141.71234687 532.79914793 139.87968311 534.41381297 138.0546875 536.046875 C123.43798198 549.04288281 107.74623284 560.83451761 91.1875 571.25 C90.56439941 571.64461426 89.94129883 572.03922852 89.29931641 572.44580078 C27.16595317 611.41822811 -53.11762758 625.66351569 -124.8125 609.25 C-151.52129256 602.95660544 -175.59533471 591.96867249 -195.8125 573.25 C-196.3497168 572.75661133 -196.88693359 572.26322266 -197.44042969 571.75488281 C-230.52332699 541.02803754 -249.70062054 494.8322587 -251.92637634 449.95388794 C-251.99222543 447.54056746 -252.02881056 445.12896258 -252.05078125 442.71484375 C-252.0605751 441.81552124 -252.07036896 440.91619873 -252.08045959 439.98962402 C-252.7444662 362.7285092 -236.253488 285.32052795 -211.8125 212.25 C-211.58691406 211.57430969 -211.36132812 210.89861938 -211.12890625 210.20245361 C-197.81835683 170.44651034 -179.9812071 132.92809054 -159.8125 96.25 C-159.20873535 95.15107422 -158.6049707 94.05214844 -157.98291016 92.91992188 C-134.84705841 50.93657134 -109.40681306 5.42146313 -60.3125 -9.125 C-38.37056834 -15.13290986 -19.15664871 -11.91969253 0 0 Z " fill="#000000" transform="translate(2463.8125,949.75)"/>
<path d="M0 0 C5.92347144 4.37381021 8.75230937 10.6692791 9.86669922 17.74365234 C11.37449091 33.79247671 7.35674738 50.54110623 4.74951172 66.2902832 C-1.37587637 103.53568577 -2.32410319 140.45092678 -2.16564941 178.13284683 C-2.1521915 181.72027344 -2.1448466 185.30766387 -2.1394043 188.89511108 C-2.0789177 226.9127343 -1.50285824 264.8842172 0.16015625 302.8671875 C48.37039693 293.54569563 96.34795818 283.23385636 144.28256226 272.59179688 C154.66020014 270.2898604 165.0441379 268.02475669 175.44403076 265.82553101 C180.84836367 264.68232962 186.24656099 263.51135117 191.64428711 262.33740234 C194.04084436 261.82218994 196.43976259 261.31782078 198.84106445 260.82519531 C202.06117271 260.16340595 205.27068732 259.46382462 208.48046875 258.75390625 C209.84662827 258.48938911 209.84662827 258.48938911 211.24038696 258.2195282 C217.03395044 256.88193641 219.68889412 254.86123979 222.97357178 249.89526367 C224.84302128 246.70005416 226.6281711 243.49024836 228.28515625 240.1796875 C231.44665882 233.90112115 234.26080332 228.4921887 240.66015625 225.1171875 C241.789375 224.50617188 241.789375 224.50617188 242.94140625 223.8828125 C251.69213928 219.87719527 261.43525552 221.64117378 270.16015625 224.8671875 C278.453859 228.49132652 284.70777172 233.60359907 291.16015625 239.8671875 C291.77503906 240.40859375 292.38992188 240.95 293.0234375 241.5078125 C303.66687763 251.19701317 311.53401351 265.98193684 312.36328125 280.3984375 C312.55227149 296.3996113 309.71725495 309.87608421 298.59765625 322.1171875 C274.81664497 344.24226763 235.61676529 347.5002423 205.1875 352.546875 C203.63035823 352.8056784 202.07321924 353.06449851 200.51608276 353.32333374 C195.39779679 354.1734402 190.27905011 355.02074985 185.16015625 355.8671875 C184.26528378 356.01516281 183.3704113 356.16313812 182.44842148 356.31559753 C170.89233092 358.22578953 159.33484931 360.12738383 147.7757597 362.01934433 C142.76756378 362.83912383 137.75966647 363.66063742 132.75244141 364.48632812 C126.81883209 365.46454098 120.88442535 366.43777569 114.94921875 367.40625 C113.99017136 367.56285599 113.03112396 367.71946198 112.04301453 367.8808136 C100.45809758 369.76628993 88.87764093 371.48526301 77.23046875 372.9375 C62.1074706 374.8394646 47.30234313 377.91239498 32.41015625 381.1171875 C28.49606807 381.95047672 24.58062996 382.77736791 20.66522217 383.60443115 C18.2628566 384.11299427 15.86116992 384.62477787 13.46026611 385.14019775 C11.86393341 385.48120514 11.86393341 385.48120514 10.23535156 385.82910156 C9.29991516 386.03021545 8.36447876 386.23132935 7.4006958 386.4385376 C5.16015625 386.8671875 5.16015625 386.8671875 3.16015625 386.8671875 C4.45758389 533.77191708 4.45758389 533.77191708 38.35791016 791.48193359 C39.391159 794.60546453 40.40197568 797.73549872 41.41015625 800.8671875 C41.70978271 801.73706299 42.00940918 802.60693848 42.31811523 803.50317383 C45.1659669 812.41746542 44.22939368 820.94448433 40.43359375 829.46484375 C32.20032608 844.99692847 14.56500979 855.06847219 -1.77734375 860.3671875 C-11.6060649 862.87451432 -24.75395712 864.21984867 -33.83984375 858.8671875 C-40.99580525 853.67281422 -45.99734221 847.7958074 -49.83984375 839.8671875 C-50.31808594 838.88234375 -50.79632812 837.8975 -51.2890625 836.8828125 C-61.83728771 812.85168525 -65.16183565 785.65519615 -68.83984375 759.8671875 C-68.95028015 759.09542175 -69.06071655 758.32365601 -69.17449951 757.52850342 C-82.21661418 665.76903458 -85.34040089 572.13145752 -86.83984375 472.8671875 C-86.8608722 471.43884235 -86.8819312 470.01049765 -86.90301514 468.58215332 C-87.24038607 445.67749142 -87.54922933 422.77248758 -87.83984375 399.8671875 C-99.23703922 402.21477764 -110.63263301 404.57006817 -122.02734375 406.9296875 C-122.88901279 407.10806152 -123.75068184 407.28643555 -124.63846207 407.47021484 C-148.85255416 412.48392639 -173.03756553 417.61200083 -197.18991089 422.9151001 C-228.4381247 429.7757697 -259.70198134 436.52894474 -291.33984375 441.3671875 C-292.38479004 441.52791748 -293.42973633 441.68864746 -294.50634766 441.85424805 C-313.40550306 444.56065754 -331.96994167 441.32617155 -347.5234375 429.7421875 C-357.52868058 421.64350845 -363.41168996 412.85941986 -364.83984375 399.8671875 C-365.7484486 388.85035372 -363.96333979 377.62826883 -356.83984375 368.8671875 C-345.33687433 356.80309762 -325.07833243 355.07502493 -309.265625 354.69140625 C-308.28674316 354.67086182 -307.30786133 354.65031738 -306.29931641 354.62915039 C-263.42113152 353.61457736 -221.12000919 343.13415302 -179.32507324 334.32028198 C-163.09198063 330.90202568 -146.82686394 327.66306013 -130.53326416 324.5475769 C-127.97514415 324.05789919 -125.41747327 323.56586849 -122.86029053 323.07131958 C-119.27805839 322.37976726 -115.69407178 321.69817797 -112.109375 321.01953125 C-111.06027451 320.8158493 -110.01117401 320.61216736 -108.93028259 320.40231323 C-101.58550516 319.02936498 -94.29683666 318.30946875 -86.83984375 317.8671875 C-86.88995102 317.07510391 -86.94005829 316.28302032 -86.99168396 315.4669342 C-89.97574467 268.01483486 -92.20228441 220.41089804 -92.83984375 172.8671875 C-92.86473877 171.15160645 -92.86473877 171.15160645 -92.89013672 169.40136719 C-94.45683762 45.18713003 -94.45683762 45.18713003 -64.83984375 9.8671875 C-49.17017175 -5.77712904 -19.51534772 -12.01581919 0 0 Z " fill="#000000" transform="translate(1878.83984375,713.1328125)"/>
<path d="M0 0 C6.52492372 6.75272654 8.12561146 15.55956219 8.4375 24.6875 C7.94197661 43.62062268 -0.66919721 66.36622442 -14 80 C-24.88466336 89.15438415 -36.88259176 92.32624263 -51 92 C-59.48350109 91.13145108 -66.56294173 88.14514789 -73.74194336 83.69360352 C-83.6367196 78.07623616 -96.37042623 80.99414165 -107 83 C-108.20076172 83.22292725 -109.40152344 83.44585449 -110.63867188 83.67553711 C-170.39622221 95.20341602 -249.51685336 119.57830607 -286.1640625 172.1015625 C-296.29501347 187.99994622 -303.17877044 206.89422979 -299.4140625 225.96875 C-296.0340868 237.00793669 -287.82739279 244.40170034 -278.03515625 250.01171875 C-236.48790076 271.24463636 -185.34133551 278.80736448 -140.34645081 289.44282532 C-136.18677992 290.43055679 -132.03117871 291.43519669 -127.875 292.4375 C-122.31321982 293.77400885 -116.74628624 295.066102 -111.15234375 296.26171875 C-52.915745 308.73608338 6.1307218 325.03482507 59 353 C59.65758301 353.34208496 60.31516602 353.68416992 60.99267578 354.03662109 C79.5826758 363.76492854 95.22787652 376.43119099 107 394 C107.52207031 394.7425 108.04414063 395.485 108.58203125 396.25 C116.6546347 408.51865326 120.85110069 423.6109702 123 438 C123.13019531 438.84175781 123.26039062 439.68351562 123.39453125 440.55078125 C128.87259868 484.01011623 112.56913861 527.89059812 86.43603516 562.04394531 C73.82896017 578.21630878 59.78743557 593.86526567 44 607 C43.45778809 607.45600586 42.91557617 607.91201172 42.35693359 608.38183594 C32.62917702 616.54192812 22.6480554 624.08277056 12 631 C11.2152832 631.51030762 10.43056641 632.02061523 9.62207031 632.54638672 C-3.82703451 641.22314344 -17.69126382 648.84312425 -32 656 C-32.8549707 656.4340918 -33.70994141 656.86818359 -34.59082031 657.31542969 C-74.51875614 677.52011444 -118.70062585 690.19377135 -163 696 C-164.62808594 696.22429687 -164.62808594 696.22429687 -166.2890625 696.453125 C-184.04743045 698.82090739 -201.6646679 699.28796403 -219.5625 699.3125 C-220.6117868 699.31608521 -221.66107361 699.31967041 -222.74215698 699.32336426 C-252.88439485 699.37881128 -290.57621287 699.42584578 -315 679 C-323.49840562 670.4736391 -328.05955584 660.38319115 -328.3125 648.375 C-328.06779873 630.11652091 -314.09251348 616.39048096 -302 604 C-301.25363281 603.22785156 -300.50726563 602.45570313 -299.73828125 601.66015625 C-286.63562528 588.14088165 -273.50754336 575.3303506 -257 566 C-256.06220703 565.46052734 -256.06220703 565.46052734 -255.10546875 564.91015625 C-247.17121992 561.15910615 -235.64377502 561.99502178 -227.375 564.1875 C-221.64274817 566.25881789 -218.18705476 568.90286992 -215.125 574.3125 C-212.86630598 581.71599707 -213.74099415 588.05927206 -217 595 C-219.1875 597.5625 -219.1875 597.5625 -221 599 C-180.29276212 617.65748403 -116.34142486 598.75180926 -76.75 584.4375 C-34.38754348 568.62923613 14.28767538 543.14028742 34 500 C40.76652655 482.26832656 41.24415024 462.92527624 33.8125 445.25 C25.81446154 429.20631572 13.39081496 419.34949741 -2 411 C-3.11632813 410.39285156 -4.23265625 409.78570313 -5.3828125 409.16015625 C-12.93408881 405.36731701 -20.65830158 402.70765812 -28.72265625 400.2421875 C-29.85879364 399.89448807 -30.99493103 399.54678864 -32.16549683 399.18855286 C-44.56537594 395.45012724 -57.09060838 392.26620088 -69.66400146 389.1710968 C-71.66915265 388.67661163 -73.67354196 388.17914228 -75.67773438 387.68078613 C-99.74395155 381.69774209 -123.86767536 375.95946268 -148 370.25 C-321.49125724 329.1963718 -321.49125724 329.1963718 -365 290 C-365.69738281 289.39542969 -366.39476563 288.79085938 -367.11328125 288.16796875 C-381.25440949 275.12518057 -389.67207354 255.43875664 -391.30175781 236.49169922 C-391.43586459 232.96767111 -391.46774271 229.46389557 -391.4375 225.9375 C-391.42992676 224.6803418 -391.42235352 223.42318359 -391.41455078 222.12792969 C-390.62348146 176.77713832 -365.98831302 140.47891118 -334.734375 109.578125 C-330.35945748 105.45320276 -325.71349051 101.72766243 -321 98 C-319.86717787 97.07843298 -318.73573221 96.15517209 -317.60546875 95.23046875 C-308.02055815 87.41972562 -298.12400896 80.09605194 -288 73 C-287.37158203 72.55946289 -286.74316406 72.11892578 -286.09570312 71.66503906 C-220.20300458 25.84063796 -123.98924151 -18.44536919 0 0 Z " fill="#000000" transform="translate(4620,901)"/>
<path d="M0 0 C1.33611328 0.96873047 1.33611328 0.96873047 2.69921875 1.95703125 C21.28615704 16.17409355 39.43618336 37.03969703 43 61 C44.1760557 75.48018579 41.50894208 86.70511448 32 98 C20.18506931 111.05045431 5.81004255 124.66461179 -12.58984375 126.21875 C-24.83971692 126.63108795 -33.72288473 122.56983468 -42.7734375 114.5390625 C-50.70306999 107.07556915 -57.08136135 98.54593186 -63.60009766 89.86181641 C-73.03102396 77.31904627 -86.2133302 67.70557706 -102 65 C-113.44058727 63.70523966 -123.09536397 69.29869058 -132 76 C-142.04954068 84.3699595 -150.81678021 93.83043495 -159 104 C-159.53415527 104.65919434 -160.06831055 105.31838867 -160.61865234 105.99755859 C-174.95494835 123.77891378 -187.83500484 142.68065383 -200 162 C-200.49000488 162.77424316 -200.98000977 163.54848633 -201.48486328 164.34619141 C-235.92552614 218.87633697 -265.35263509 276.67895802 -291.23384094 335.70942688 C-293.6646536 341.25098098 -296.1377046 346.77271053 -298.62304688 352.29003906 C-300.56295923 356.6160173 -302.46861725 360.95661288 -304.36962891 365.29980469 C-305.5546908 368.00011148 -306.75871516 370.6913373 -307.97021484 373.37988281 C-309.74802678 377.32960588 -311.49101844 381.2934178 -313.21627808 385.26635742 C-313.89228349 386.8087985 -314.57883755 388.34667029 -315.27713013 389.87915039 C-316.26186071 392.04547957 -317.20437605 394.22641813 -318.140625 396.4140625 C-318.4305986 397.02798859 -318.7205722 397.64191467 -319.01933289 398.27444458 C-324.13908013 410.64860168 -320.79564976 427.54680445 -319.8984375 440.61328125 C-319.77977478 442.40072784 -319.66156295 444.1882044 -319.54376221 445.97570801 C-319.22676844 450.76247334 -318.90255314 455.5487241 -318.57685089 460.33490372 C-318.30533073 464.34022377 -318.03850848 468.34585155 -317.77160454 472.35148144 C-316.33027699 493.96785257 -314.82845552 515.57958128 -313.265625 537.1875 C-313.19599674 538.15201773 -313.12636848 539.11653545 -313.05463028 540.11028099 C-312.38592344 549.37265431 -311.71419752 558.63476102 -311.0241394 567.89557076 C-310.77216848 571.28798627 -310.5241177 574.68068171 -310.27681732 578.07344055 C-310.16259802 579.62690467 -310.04658211 581.18023805 -309.92850494 582.7334137 C-308.16154822 605.98716159 -308.06181511 630.38368553 -324.125 649.171875 C-334.10654084 658.90387732 -346.3525501 661.3125 -359.88696289 661.3125 C-369.43312786 661.12015598 -376.04671187 657.93616784 -382.90234375 651.3828125 C-412.07429259 618.24521699 -406.28565452 550.84114052 -407.9921875 509.3359375 C-408.05477155 507.83093878 -408.05477155 507.83093878 -408.11861992 506.29553604 C-409.20820109 479.82583541 -409.84424992 453.34430279 -410.46810913 426.86027145 C-410.56425586 422.80086584 -410.66215175 418.74150622 -410.76074219 414.68215942 C-411.45430081 386.10228823 -412.12816541 357.52368458 -412.5 328.9375 C-412.84926899 302.2837745 -413.60425237 275.64433013 -414.375 249 C-414.40720768 247.88315701 -414.43941536 246.76631401 -414.47259903 245.61562729 C-415.19899041 220.43507172 -415.95547126 195.25560637 -416.7561512 170.07730293 C-419.28254566 90.50575067 -419.28254566 90.50575067 -419.41885376 59.82336426 C-419.43104187 57.28336938 -419.44916233 54.7433942 -419.47396851 52.20349121 C-419.73023368 22.39309418 -419.73023368 22.39309418 -410.74609375 11.7734375 C-399.57713918 0.4295776 -385.44349581 -2.71940171 -369.91796875 -3.04345703 C-357.5590467 -2.99399807 -345.08888727 -1.02532862 -336 8 C-327.01998185 17.87079743 -326.12574835 35.2701999 -325 48 C-324.91748017 48.89235415 -324.83496035 49.78470829 -324.74993992 50.70410347 C-323.83247638 61.8512783 -323.82568903 72.97363428 -323.79467773 84.15185547 C-323.78508131 86.36079077 -323.77507024 88.5697243 -323.76467896 90.77865601 C-323.73781483 96.73630323 -323.71670601 102.69395823 -323.69667697 108.65163183 C-323.67470235 114.89229058 -323.64737018 121.13292589 -323.62062073 127.37356567 C-323.57649275 137.83545913 -323.53563205 148.29736108 -323.49731445 158.75927734 C-323.45786349 169.52816712 -323.41641479 180.29704619 -323.37231445 191.06591797 C-323.36959018 191.73132685 -323.36686591 192.39673573 -323.36405908 193.08230852 C-323.35037803 196.42095173 -323.33665594 199.75959477 -323.32291877 203.09823775 C-323.20933588 230.73213651 -323.1024459 258.36605787 -323 286 C-322.83526184 285.18958252 -322.67052368 284.37916504 -322.50079346 283.54418945 C-321.87450155 280.4703118 -321.24559678 277.39698231 -320.61505127 274.32397461 C-320.21423916 272.36677149 -319.81630687 270.4089793 -319.41845703 268.45117188 C-301.85791266 182.98623146 -256.43596816 105.53637666 -198.14453125 41.36328125 C-196.67479074 39.74362186 -195.21428095 38.11555185 -193.76171875 36.48046875 C-186.30922791 28.10124329 -178.53107764 20.2765074 -170 13 C-169.08992188 12.18917969 -168.17984375 11.37835937 -167.2421875 10.54296875 C-155.43765244 0.13110356 -142.18914522 -9.13174524 -128 -16 C-127.4210498 -16.28182129 -126.84209961 -16.56364258 -126.24560547 -16.85400391 C-84.22071316 -37.04274925 -36.78419758 -26.7511325 0 0 Z " fill="#000000" transform="translate(3232,918)"/>
<path d="M0 0 C4.82795193 4.80753776 4.31129068 10.82067868 4.375 17.1875 C4.35745968 75.52660155 -16.25017864 137.60906956 -31.43359375 193.48828125 C-31.81663348 194.89952924 -32.19962893 196.31078926 -32.58258057 197.72206116 C-32.7730899 198.42408504 -32.96359924 199.12610891 -33.15988159 199.84940624 C-65.46897993 295.98036997 -65.46897993 295.98036997 -63.0625 389.5625 C-62.51851562 390.49835938 -61.97453125 391.43421875 -61.4140625 392.3984375 C-58.44885167 397.85377013 -58.43035638 402.81012328 -60.125 408.6875 C-64.40620411 419.61783086 -74.62681108 424.76837747 -84.9296875 429.2734375 C-93.26468813 432.19855093 -105.32868368 432.54133095 -113.875 429.9375 C-117.67869998 427.57920601 -118.74884079 425.13603372 -120 421 C-124.57917341 385.74036474 -110.92185873 344.19815855 -104 310 C-103.66775421 308.3539679 -103.66775421 308.3539679 -103.32879639 306.67468262 C-90.96900744 245.58297377 -74.31187339 185.4606477 -58.37109375 125.23046875 C-58.13407808 124.33475033 -57.89706242 123.43903191 -57.65286446 122.5161705 C-55.36472342 113.8722714 -53.06997785 105.23038578 -50.73095703 96.60009766 C-50.39725601 95.36810135 -50.06355499 94.13610504 -49.71974182 92.86677551 C-49.11774843 90.65033234 -48.51338938 88.43452964 -47.90611267 86.2195282 C-47.52151634 84.80629021 -47.52151634 84.80629021 -47.12915039 83.36450195 C-46.79845299 82.15864189 -46.79845299 82.15864189 -46.46107483 80.92842102 C-45.92248662 79.00626694 -45.92248662 79.00626694 -46 77 C-46.59518433 77.87398437 -46.59518433 77.87398437 -47.20239258 78.765625 C-60.37134006 98.10009471 -60.37134006 98.10009471 -64.92114258 104.69287109 C-85.88509643 135.0738109 -106.18506972 165.8568606 -126 197 C-126.52899902 197.83015625 -127.05799805 198.6603125 -127.60302734 199.515625 C-133.07048702 208.10150903 -138.45707061 216.73233345 -143.77075195 225.41430664 C-150.19247377 235.90575531 -156.70930376 246.31260087 -163.51293945 256.56152344 C-166.6754865 261.34704643 -169.72925749 266.181338 -172.69166565 271.09240723 C-178.98791353 281.52199259 -185.67217084 291.65655975 -192.50585938 301.74072266 C-194.37109834 304.49424025 -196.22893308 307.25264286 -198.0859375 310.01171875 C-203.96293774 318.72226141 -209.91082677 327.37462303 -216.05078125 335.90234375 C-216.823116 336.97705933 -216.823116 336.97705933 -217.61105347 338.07348633 C-221.665747 343.65969122 -225.97787923 348.98617029 -230.52734375 354.17578125 C-232.05144432 355.91657859 -233.54991796 357.68069766 -235.00390625 359.48046875 C-245.75750333 372.52397585 -265.07042627 383.88380328 -282 386 C-286.73106737 386.15866384 -289.92490782 385.64953486 -294 383.1875 C-297.56993309 379.28288568 -297.19459726 374.97076053 -297.13818359 369.90237427 C-296.87967803 364.47278679 -296.08529315 359.12259194 -295.3125 353.74609375 C-295.13492661 352.47439835 -294.95735321 351.20270294 -294.7743988 349.89247131 C-294.29337167 346.45521649 -293.80270401 343.01941285 -293.30860519 339.58401489 C-292.99693871 337.41620711 -292.68691779 335.24816907 -292.37722778 333.08007812 C-290.94280963 323.04972803 -289.47749901 313.02408413 -288 303 C-287.83586609 301.87909973 -287.67173218 300.75819946 -287.50262451 299.60333252 C-278.31011362 236.92823984 -264.43328639 174.87981117 -251 113 C-253.65169036 115.53493365 -255.83035552 118.01340803 -257.8125 121.09765625 C-258.32409668 121.88873779 -258.83569336 122.67981934 -259.36279297 123.49487305 C-259.90307129 124.34218994 -260.44334961 125.18950684 -261 126.0625 C-261.57250488 126.95300049 -262.14500977 127.84350098 -262.73486328 128.76098633 C-264.49528792 131.50392282 -266.2479869 134.25168543 -268 137 C-268.99733557 138.55472616 -269.99472824 140.10941569 -270.9921875 141.6640625 C-292.95770821 176.0416451 -313.06591937 211.64012583 -332.39379883 247.55444336 C-335.42681118 253.16711058 -338.53814331 258.71242482 -341.8125 264.1875 C-360.51227653 295.51569704 -377.09924277 328.18125326 -393.73478699 360.63597107 C-396.35305642 365.74317368 -398.98129595 370.84516671 -401.61328125 375.9453125 C-402.77465837 378.19749238 -403.93586765 380.44975872 -405.09701538 382.70205688 C-405.86232155 384.18585673 -406.62812533 385.66940003 -407.3944397 387.15267944 C-411.25256336 394.62215553 -415.07759927 402.10134422 -418.7421875 409.66796875 C-419.60602051 411.44022827 -419.60602051 411.44022827 -420.48730469 413.24829102 C-421.53472337 415.40792843 -422.5704126 417.57331934 -423.59082031 419.74584961 C-430.20177276 433.36072117 -439.64681542 440.91170131 -453.51171875 446.38671875 C-460.78945107 448.79572422 -467.17412341 450.84208873 -474.375 447.375 C-478.21201833 443.90341199 -478.87682984 441.00259062 -479.1887207 435.93164062 C-478.95333892 431.02790417 -477.85123241 426.63968753 -476.60546875 421.90625 C-476.06600824 419.78654028 -475.52722889 417.66665712 -474.98901367 415.54663086 C-474.69723236 414.40773407 -474.40545105 413.26883728 -474.10482788 412.09542847 C-464.3242206 373.76074512 -456.10677604 335.0753969 -447.80470467 296.39984798 C-446.41521733 289.92797545 -445.02015055 283.45732598 -443.62207031 276.98730469 C-431.64474234 221.53929104 -419.77780834 166.17582742 -413.625 109.71484375 C-413.45758553 108.17969872 -413.45758553 108.17969872 -413.28678894 106.61354065 C-412.75057235 101.65827411 -412.23061786 96.70198324 -411.7355957 91.74243164 C-409.4130225 69.01627812 -409.4130225 69.01627812 -403 61 C-402.5875 60.45988281 -402.175 59.91976562 -401.75 59.36328125 C-393.36558658 49.64696882 -378.50245604 44.12363845 -366 43 C-362.7890625 43.12890625 -362.7890625 43.12890625 -360 44 C-355.31431112 49.15227231 -356.42265088 56.54571479 -356.60546875 63.06640625 C-357.21875348 74.55172922 -359.68757954 85.76159709 -362 97 C-362.37979598 98.8614754 -362.75951129 100.72296725 -363.13916016 102.58447266 C-368.98794883 131.16814376 -375.39501077 159.60044798 -382.11639404 187.98985291 C-384.1416609 196.5624726 -386.09402115 205.1501301 -388 213.75 C-388.15678223 214.4565976 -388.31356445 215.16319519 -388.47509766 215.89120483 C-390.52079614 225.12779993 -392.51096611 234.3757902 -394.48046875 243.62890625 C-395.38172212 247.85700412 -396.28419034 252.08484098 -397.1875 256.3125 C-397.41281403 257.36786957 -397.63812805 258.42323914 -397.87026978 259.5105896 C-402.26212824 280.03172418 -407.04158394 300.45240107 -411.9362793 320.85864258 C-412.20778809 321.9928363 -412.47929687 323.12703003 -412.7590332 324.29559326 C-413.27002627 326.42760879 -413.78318604 328.55910653 -414.29882812 330.69000244 C-414.52401123 331.62833923 -414.74919434 332.56667603 -414.98120117 333.53344727 C-415.17896652 334.35224869 -415.37673187 335.17105011 -415.58049011 336.0146637 C-416.06891307 337.98793629 -416.06891307 337.98793629 -416 340 C-415.58862793 339.0613208 -415.17725586 338.1226416 -414.75341797 337.15551758 C-405.57018307 316.22826224 -396.11268526 295.49649645 -386 275 C-385.51192871 274.00339355 -385.02385742 273.00678711 -384.52099609 271.97998047 C-378.20450233 259.08335177 -371.508662 246.43507397 -364.57226562 233.86230469 C-361.81314632 228.83933657 -359.097567 223.79284126 -356.375 218.75 C-351.43316166 209.61482271 -346.43678094 200.51317044 -341.36474609 191.44970703 C-339.84423446 188.72040225 -338.33807178 185.98340897 -336.83203125 183.24609375 C-325.45013262 162.63527574 -313.40552757 142.36880308 -300 123 C-299.53674316 122.32710938 -299.07348633 121.65421875 -298.59619141 120.9609375 C-258.42315743 62.75831995 -258.42315743 62.75831995 -225.90625 56.39453125 C-215.42206171 54.97127451 -215.42206171 54.97127451 -211.0625 58.125 C-197.09420768 77.59595294 -208.76951857 118.10485413 -212.35681152 140.19744873 C-216.13188313 162.96858151 -221.27268024 185.46288704 -226.29840088 207.98260498 C-231.03019938 229.21160044 -235.30108251 250.47658487 -239.09277344 271.89208984 C-240.0582791 277.34385154 -241.04828043 282.79106614 -242.0390625 288.23828125 C-242.693656 291.8461829 -243.34720611 295.45427232 -244 299.0625 C-244.15442566 299.91589966 -244.30885132 300.76929932 -244.46795654 301.64855957 C-244.89734586 304.02706407 -245.32416492 306.40601318 -245.75 308.78515625 C-245.94150131 309.84419914 -245.94150131 309.84419914 -246.13687134 310.92463684 C-246.78005649 314.44068263 -246.78005649 314.44068263 -247 318 C-246.27018921 316.73796753 -246.27018921 316.73796753 -245.52563477 315.45043945 C-239.40070909 304.98931272 -232.67649762 294.98371984 -225.84112549 284.97695923 C-215.05864627 269.17695742 -204.58878774 253.28771922 -194.74316406 236.88574219 C-179.60805108 211.83013498 -163.63053731 187.28033426 -147.32974243 162.97123718 C-144.7986725 159.19600666 -142.2773814 155.41441865 -139.76171875 151.62890625 C-131.60333918 139.35256132 -123.37732572 127.12808292 -115 115 C-114.3709375 114.08863281 -113.741875 113.17726563 -113.09375 112.23828125 C-104.71815878 100.11657599 -96.24147375 88.07845271 -87.57226562 76.16503906 C-85.97495653 73.96551467 -84.38479917 71.76099526 -82.796875 69.5546875 C-55.06850375 31.02909462 -55.06850375 31.02909462 -42 17 C-41.25621094 16.19046875 -40.51242187 15.3809375 -39.74609375 14.546875 C-29.25568152 3.52738111 -15.47330001 -2.55540845 0 0 Z M-419 345 C-418 347 -418 347 -418 347 Z " fill="#000000" transform="translate(2596,361)"/>
<path d="M0 0 C18.5406672 16.89649483 19.50378865 50.61752276 20.7898705 74.06277204 C21.14197695 82.63015782 20.99135954 91.22029463 20.96459961 99.79272461 C20.96103647 102.14933711 20.95795242 104.50595038 20.95530701 106.86256409 C20.94877658 111.92810405 20.93922701 116.99362606 20.92741203 122.05915642 C20.91048232 129.46879256 20.90081281 136.87842086 20.8935333 144.28807206 C20.88159494 156.42764842 20.86667803 168.56721865 20.84838867 180.70678711 C20.84729855 181.43178249 20.84620843 182.15677786 20.84508527 182.9037428 C20.82968808 193.04574149 20.81111708 203.18773158 20.79106876 213.32972202 C20.75656269 230.87866019 20.73104075 248.42759098 20.72265625 265.9765625 C20.72231967 266.66144594 20.7219831 267.34632939 20.72163633 268.05196688 C20.70587191 303.39578532 20.84207676 338.72572633 21.796875 374.05859375 C21.82827548 375.22829747 21.82827548 375.22829747 21.86031032 376.42163157 C22.63787351 405.07246961 23.78673895 433.73718355 25.8828125 462.32421875 C26.01620026 464.16930527 26.01620026 464.16930527 26.15228271 466.05166626 C27.84451148 488.78031524 30.8181603 511.22212726 34.23443222 533.75006104 C34.91328441 538.2430065 35.57996766 542.73775558 36.24731445 547.23242188 C37.1755774 553.47975388 38.10628753 559.72670679 39.04112339 565.9730587 C40.94909201 578.7258604 42.80931855 591.48504855 44.63122559 604.25045776 C45.05683795 607.22989223 45.48576876 610.20883486 45.91503906 613.18774414 C46.16884697 614.96236987 46.42244296 616.73702592 46.67578125 618.51171875 C46.78562851 619.27145493 46.89547577 620.0311911 47.00865173 620.81394958 C52.02840551 656.25862045 52.02840551 656.25862045 42.375 670.453125 C33.53234208 681.54116988 20.60439014 686.44391196 6.8828125 688.32421875 C-2.46653249 689.25800043 -10.72640787 688.14852183 -18.5234375 682.6171875 C-61.01329249 644.56548517 -51.31645324 534.10834242 -55.1171875 481.32421875 C-55.17293945 480.55265694 -55.22869141 479.78109512 -55.28613281 478.98615265 C-61.24619378 396.45313932 -64.50738336 313.73299741 -69.27048731 196.00305939 C-69.36611585 193.60113571 -69.46190086 191.19921832 -69.55772018 188.79730225 C-70.83344526 156.80294045 -72.07128169 124.80737238 -73.13855743 92.80529022 C-73.22389373 90.24704542 -73.30986567 87.68882172 -73.3965683 85.13062286 C-75.77217286 14.638233 -75.77217286 14.638233 -65.4921875 -2.36328125 C-49.03390788 -18.38844825 -16.63178843 -13.16427535 0 0 Z " fill="#000000" transform="translate(3441.1171875,897.67578125)"/>
<path d="M0 0 C5.09479351 4.93634299 8.21976033 9.82150691 8.625 17.0625 C8.0458172 41.01170898 -11.53207183 68.97730933 -21.94073486 90.43554688 C-27.33171312 101.55099686 -32.56198752 112.73626326 -37.73828125 123.953125 C-39.90208772 128.64039855 -42.08731848 133.31664891 -44.29296875 137.984375 C-53.02020689 156.47988883 -61.28083762 175.16232015 -69.45828247 193.90664673 C-72.20863599 200.20513409 -74.98379208 206.49226205 -77.7734375 212.7734375 C-96.86384563 255.76085849 -115.73122974 298.801451 -130.6875 343.4375 C-130.93239166 344.16473267 -131.17728333 344.89196533 -131.42959595 345.64123535 C-138.58726916 366.71253086 -138.58726916 366.71253086 -141.1328125 388.66015625 C-141.13442383 389.69479004 -141.13603516 390.72942383 -141.13769531 391.79541016 C-141.13350586 392.8735498 -141.12931641 393.95168945 -141.125 395.0625 C-141.1259668 396.17415527 -141.12693359 397.28581055 -141.12792969 398.43115234 C-141.10881251 404.38615391 -140.87584876 410.20498166 -140.25 416.125 C-139.7691161 421.9097505 -140.25867162 424.51040595 -144 429 C-151.28330788 436.93466062 -160.96661868 439.98066831 -171.1875 442.3125 C-171.93555908 442.48410645 -172.68361816 442.65571289 -173.4543457 442.83251953 C-179.22475719 444.05317126 -185.26830006 445.21408886 -190.8125 442.75 C-194.83005439 439.53595649 -196.17077371 437.02672574 -197 432 C-203.14790492 371.62958942 -158.53073795 294.70533085 -134.0067749 241.52929688 C-130.61409167 234.17112089 -127.25149476 226.79937402 -123.89770508 219.42340088 C-122.97791649 217.40135103 -122.05644276 215.38007627 -121.13476562 213.35888672 C-117.00019518 204.27793057 -112.97756771 195.15074414 -109 186 C-109.79921875 187.00417969 -110.5984375 188.00835938 -111.421875 189.04296875 C-118.61978392 198.02930838 -126.03392326 206.68719522 -134 215 C-134.77988281 215.82113281 -135.55976563 216.64226562 -136.36328125 217.48828125 C-141.02814953 222.28572127 -145.9702831 226.58088291 -151.19921875 230.75390625 C-153.0171808 232.21182561 -154.81326706 233.69761335 -156.58203125 235.21484375 C-174.08913355 250.14968814 -196.92697542 263.65006934 -220.609375 263.20703125 C-229.30322345 262.45413261 -235.01371778 259.22350086 -241 253 C-242.0828125 251.88625 -242.0828125 251.88625 -243.1875 250.75 C-273.34926105 204.98732807 -254.11820698 119.5102068 -244 69 C-234.83634408 25.47727498 -234.83634408 25.47727498 -223.3125 16.9375 C-217.3174709 13.43097355 -211.8133191 13.36913712 -205 14 C-200.19936629 16.1055411 -198.55703888 18.29546623 -196.61386108 23.09686279 C-192.87395015 34.69160929 -197.23180702 49.2869136 -199.56121826 60.77685547 C-200.63558213 66.09161136 -201.65372325 71.41716841 -202.67578125 76.7421875 C-202.98116821 78.32637482 -202.98116821 78.32637482 -203.29272461 79.94256592 C-216.96926472 144.72253082 -216.96926472 144.72253082 -207 208 C-206.56107422 209.08087891 -206.56107422 209.08087891 -206.11328125 210.18359375 C-204.2904457 213.15769386 -201.99482878 213.6408229 -198.75 214.58203125 C-187.34475593 216.31549874 -177.03569732 211.11972314 -167.88671875 204.875 C-154.45670868 194.90498031 -142.7748846 182.86563286 -130.93389893 171.10812378 C-129.74450047 169.92745408 -128.55374223 168.74815237 -127.36151123 167.57034302 C-120.09237947 160.37873875 -113.34944944 153.03339943 -107 145 C-105.85551862 143.62062026 -104.70615165 142.245272 -103.55078125 140.875 C-95.66663495 131.46095103 -88.13026876 121.82902992 -81.03320312 111.80493164 C-79.49350201 109.68081708 -77.92035832 107.62449716 -76.29492188 105.56811523 C-66.74642165 93.17835827 -61.36971805 79.56061958 -55.75 65.0625 C-54.35280507 61.5183307 -52.94919367 57.97675276 -51.54481506 54.4354248 C-50.63729962 52.1465296 -49.7320165 49.85674792 -48.8290863 47.56604004 C-32.43734068 6.12857963 -32.43734068 6.12857963 -20.8125 -0.9375 C-13.54801989 -3.68185915 -6.69864548 -4.51430456 0 0 Z " fill="#000000" transform="translate(2874,499)"/>
<path d="M0 0 C4.46429991 3.32210773 8.50363151 7.00115414 12.50390625 10.86328125 C12.98504883 11.32395996 13.46619141 11.78463867 13.96191406 12.25927734 C21.03088711 19.05321961 27.46774146 26.12078013 33.50390625 33.86328125 C34.31601563 34.88164063 35.128125 35.9 35.96484375 36.94921875 C40.41946348 42.58057906 44.60183991 48.33404681 48.50390625 54.36328125 C48.87773437 54.93860596 49.2515625 55.51393066 49.63671875 56.10668945 C53.87380443 62.78696505 55.42687197 68.00098065 54.50390625 75.86328125 C52.83553714 82.08584713 50.53279503 86.69298324 45.50390625 90.86328125 C44.73433594 91.51425781 43.96476562 92.16523437 43.171875 92.8359375 C28.32733285 104.11605079 4.91563705 104.65762445 -12.87402344 102.58642578 C-34.82302074 99.21223409 -52.86430705 85.89650174 -68.49609375 70.86328125 C-69.17542969 70.25871094 -69.85476562 69.65414062 -70.5546875 69.03125 C-77.65369588 62.53304857 -83.55512136 52.96434032 -84.83203125 43.328125 C-85.06981975 27.94320874 -78.39039435 15.5297187 -67.93359375 4.67578125 C-47.11619366 -15.93354392 -23.44592193 -15.75873441 0 0 Z " fill="#000000" transform="translate(3402.49609375,649.13671875)"/>
</svg>
